<?xml version="1.0" encoding="utf-8"?>
<!-- Generator: Adobe Adobe Illustrator 24.2.0, SVG Export Plug-In . SVG Version: 6.00 Build 0)  -->
<svg version="1.1" xmlns="http://www.w3.org/2000/svg" xmlns:xlink="http://www.w3.org/1999/xlink" x="0px" y="0px" width="1728px"
	 height="1296px" viewBox="0 0 1728 1296" style="enable-background:new 0 0 1728 1296;" xml:space="preserve">
<style type="text/css">
	.st0{fill:none;stroke:#FFFFFF;stroke-width:8;stroke-miterlimit:10;}
	.st1{fill:none;stroke:#000000;stroke-miterlimit:10;}
	.st2{fill:#D4F4F4;stroke:#000000;stroke-miterlimit:10;}
	.st3{fill:#BFD1E5;stroke:#000000;stroke-miterlimit:10;}
	.st4{fill:#F1F2EB;stroke:#000000;stroke-miterlimit:10;}
	.st5{fill:#E2E2E2;stroke:#000000;stroke-miterlimit:10;}
	.st6{fill:#E4E7ED;stroke:#000000;stroke-miterlimit:10;}
	.st7{fill:#E3E4E8;stroke:#000000;stroke-miterlimit:10;}
	.st8{fill:#E0E2DB;stroke:#000000;stroke-miterlimit:10;}
	.st9{fill:#FF7400;stroke:#000000;stroke-miterlimit:10;}
	.st10{fill:#F9F5E3;stroke:#000000;stroke-miterlimit:10;}
	.st11{stroke:#000000;stroke-miterlimit:10;}
	.st12{fill:#FFFFFF;stroke:#000000;stroke-miterlimit:10;}
</style>
<g id="Layer_2">
	<path class="st0" d="M912.39,541.87c-18.67,6.83-38.58,9.43-58.32,11.73c-20.75,2.41-41.78,3.79-62.59,5.62
		c-6.03,0.53-12.1,0.66-18.15,0.51c-3.61-0.09-6.92,0.61-10.43,0.02c-2.82-0.47-5.57-1.28-8.28-2.21
		c-11.17-3.84-21.75-9.29-31.59-15.88c-5.52-3.69-11.26-8.29-16.98-13.22c-63.2-54.35-65.78-152.43-12.4-215.55
		c55.99-66.21,156.42-73.34,224.31-15.92s77.55,157.63,20.99,223.72C931.71,529.77,922.96,538,912.39,541.87z"/>
	<path class="st2" d="M949.41,469.38c-5.28,10.79-10.8,21.46-16.55,32c-0.96,1.75-1.92,3.5-3.01,5.17
		c-1.88,2.88-4.13,5.54-5.72,8.59c-0.53,1.02-0.96,2.32-0.27,3.24c0.35,0.47,0.93,0.72,1.51,0.85c2.54,0.59,5.22-0.71,7.03-2.59
		c1.81-1.88,2.96-4.28,4.21-6.58c4.86-8.9,11.67-16.73,15.56-26.1c1.7-4.08,2.8-8.76,1.19-12.89c-0.35-0.89-0.87-1.79-1.73-2.2
		C950.78,468.47,949.68,468.82,949.41,469.38z"/>
	<path class="st2" d="M959.32,453.92c-0.84,0.52-1.63,1.13-2.29,1.88c-1.14,1.29-1.91,2.37-2.3,3.73c-0.34,1.18-0.36,2.63,0.88,3.3
		c0.66,0.36,1.48,0.3,2.14-0.06c1.82-0.99,2.13-3.25,2.46-5.01c0.21-1.15,0.38-2.31,0.29-3.48c-0.01-0.16-0.05-0.31-0.13-0.44
		c-0.14-0.23-0.47-0.33-0.69-0.17C959.57,453.76,959.44,453.84,959.32,453.92z"/>
	<path class="st2" d="M736.75,287.63c-21.89,10.52-38.34,30.46-48,52.74c-9.66,22.28-13.01,46.84-13.56,71.12
		c-0.04,1.97-0.02,4.13,1.8,5.42c1.84,1.3,4.37,0.92,6.01-0.63c3.07-2.91,2.82-7.15,2.74-11.06c-0.46-20.39,5.78-40.32,13.16-59.33
		c1.54-3.95,3.13-7.89,5-11.69c6.05-12.27,15.1-23.05,26.14-31.14c3.95-2.89,8.48-5.95,10.42-10.22c0.98-2.15-0.21-4.79-2.52-5.28
		C737.48,287.46,737.07,287.47,736.75,287.63z"/>
	<path class="st2" d="M769.87,274.83c-1.63-2.33-4.75-3.1-7.41-2.09c-3.81,1.44-7.47,3.28-10.91,5.48
		c-0.91,0.58-1.84,1.23-2.35,2.19c-0.51,0.96-0.43,2.31,0.45,2.94c0.4,0.29,0.9,0.39,1.39,0.45c5.4,0.74,10.7-1.75,15.63-3.91
		c0.97-0.43,1.92-0.91,2.8-1.5c0.44-0.29,0.86-0.63,1.04-1.12c0.24-0.64,0-1.36-0.34-1.96
		C770.08,275.14,769.98,274.98,769.87,274.83z"/>
	<path class="st2" d="M784.95,269.53c-2.84,0.49-5.84,1.25-6.88,3.54c-0.09,0.2-0.17,0.43-0.1,0.64c0.04,0.14,0.14,0.26,0.26,0.38
		c0.59,0.6,1.5,0.92,2.39,1c0.89,0.08,1.77-0.05,2.63-0.21c0.91-0.17,1.81-0.37,2.62-0.75c0.8-0.38,1.5-0.94,1.84-1.67
		c0.33-0.73,0.25-1.65-0.34-2.3S785.72,269.4,784.95,269.53z"/>
	<path class="st3" d="M793.82,528.36c-6.42-1.49-6.61-1.56-13.19-0.27c-3.06,0.6-3.11,2.02-7.89,7.6
		c-3.94,4.6-6.68,10.95-3.26,15.84c2.03,2.91,5.65,4.59,9.32,5.21s7.43,0.3,11.15-0.01c11.83-1.01,23.66-2.03,35.49-3.04
		c9.51-0.82,18.57-2.19,28.47-3.04c12.14-1.04,23.2-3.29,34.89-5.31c6.44-1.11,13.58-2.64,16.16-8.46c1.13-2.55,0.43-5.51-0.85-8
		c-3.1-6.04-7.01-9.35-13.58-11.05c-5.16-1.33-9.76-2.7-15.86-0.7c-3.14,1.03-3.95,1.41-10.66,3.62c-8.74,2.87-18.98,5.12-28.17,6.5
		c-5.82,0.87-11.63,1.75-17.45,2.62C810.45,531.07,801.05,530.04,793.82,528.36z"/>
	<path class="st4" d="M776.03,560.93c-9.03,23.36-10.62,49.18-7.03,73.97c3.59,24.78,12.21,48.62,23.06,71.37
		c-2.97,19.55-2.29,39.65,2.24,58.91c7.07-2.48,14.83-1.06,22.17,0.41c16.07,3.24,32.6,6.88,46.06,16.43
		c4.47-5.48,7.13-12.19,9.29-18.92c4.84-15.12,7.42-30.96,7.59-46.85l3.25-1.1c-0.27,8.67-0.54,17.48,1.53,25.9
		c1.24,5.04,3.28,9.84,5.31,14.61c2.42,5.68,4.84,11.36,7.11,16.58c2.01-1.62,4.24-2.97,6.61-4c2.48-1.07,5.09-1.78,7.71-2.46
		c11.95-3.1,24.07-5.55,36.28-7.34c8.62-1.26,17.63-3.08,25.53-3.44c2.37-21.16-1.58-42.98-11.37-62.22
		c-4.84-11.6-14.08-22.25-22.86-31.26c2.99-6.85,3.75-14.43,4.35-21.53c4.76,2.37,9.55,4.76,14.67,6.22
		c5.11,1.46,10.62,1.95,15.02,1.45c-1.01-14.25,4.63-28.03,10.18-41.6c-5.61-8.56-11.41-16.98-17.4-25.27
		c-3.07-4.24-6.2-8.47-9.91-12.16c-8.23-8.18-19.25-13.5-31.54-15.54c-0.93-2.65-1.87-5.33-3.42-7.67c-1.55-2.34-3.78-4.35-6.1-4.91
		c-3.99-0.18-7.86,1.26-11.65,2.53c-7.52,2.51-15.27,3.08-22.77,4.71c-3.56,0.77-7.51,2.04-11.15,2.47
		c-27.04,3.24-53.19,5.41-80.39,6.89C784.34,557.32,777.51,557.09,776.03,560.93z"/>
	<path class="st1" d="M889.9,680.71c-5.29,11.13-7.82,23.55-7.29,35.86"/>
	<path class="st1" d="M882.65,715.15c-2.45,1.19-5.3,1.18-8.01,0.97c-5.24-0.42-11.08-1.67-16.04-3.42"/>
	<path class="st4" d="M701.17,625.27c2.65,7.38,7.9,13.54,13.51,19.03c17.23,16.84,39.66,29.12,63.65,31.12
		c0.3,0.03,0.42-0.29,0.29-0.56c-1.35-3.03-2.6-5.58-3.26-8.6c-0.92-4.18-1.84-8.35-2.76-12.53c-1.2-5.47-2.41-10.95-3.28-16.48
		c-1.07-6.82-1.62-13.71-1.76-20.61c-0.08-3.73-0.05-7.58-1.43-11.05c-0.87-2.19-2.26-4.14-3.76-5.96
		c-8.19-9.96-20.05-16.83-32.78-18.92c-1.06-0.17-2.16-0.14-3.18,0.18c-3.9,1.22-3.7,4.87-3.99,7.98
		C721.06,603.54,705.59,612.91,701.17,625.27z"/>
	<path class="st5" d="M685.97,613.48c-3.76-3.06-8.29-7.55-11.11-11.49c-1.95-2.74-3.77-5.76-6.68-7.44
		c-1.56-0.9-3.34-1.35-5.09-1.75c-4.44-1.02-9.15-1.96-12.58-4.95c-3.44-2.99-5.06-7.69-5.1-12.25c-0.04-4.56,1.33-9.02,3.07-13.23
		c1.99-4.83,4.54-9.54,8.3-13.17c3.76-3.63,8.88-6.09,14.1-5.78c5.75,0.34,10.82,3.91,14.84,8.02c4.02,4.12,7.35,8.9,11.63,12.75
		c0.25,0.22,0.56,0.46,0.88,0.4c0.4-0.08,0.58-0.55,0.66-0.95c0.51-2.44,0.18-4.97-0.02-7.46c-0.2-2.49-0.25-5.09,0.77-7.36
		c1.02-2.28,3.38-4.13,5.85-3.8c2.75,0.37,4.48,3.1,5.69,5.6c3.04,6.27,5.27,12.93,6.64,19.76"/>
	<path class="st1" d="M926.96,553.71c-2.47-0.72-5.11,0.2-7.44,1.3c-5.76,2.73-10.94,6.68-15.1,11.51"/>
	<path class="st1" d="M944.41,640.76c-5.13-2.37-9.75-5.7-14.34-8.99c-5.44-3.91-10.82-7.92-16.26-11.83"/>
	<path class="st3" d="M808.99,640.84l-5.57-48.51c-0.51-4.44,2.67-8.45,7.11-8.96l69.87-8.03c4.44-0.51,8.45,2.67,8.96,7.11
		l5.57,48.51c0.51,4.44-2.67,8.45-7.11,8.96l-69.87,8.03C813.51,648.46,809.5,645.27,808.99,640.84z"/>
	<path class="st6" d="M816.26,621.51l-1.66-14.44c-0.82-7.12,4.29-13.56,11.41-14.38l6.52-0.75c7.12-0.82,13.56,4.29,14.38,11.41
		l1.66,14.44c0.82,7.12-4.29,13.56-11.41,14.38l-6.52,0.75C823.51,633.74,817.07,628.63,816.26,621.51z"/>
	<path class="st7" d="M854.4,604.31l-0.16-1.42c-0.36-3.17,1.91-6.04,5.09-6.41l15.08-1.73c3.17-0.36,6.04,1.91,6.41,5.09l0.16,1.42
		c0.36,3.17-1.91,6.04-5.09,6.41l-15.08,1.73C857.64,609.76,854.77,607.48,854.4,604.31z"/>
	<circle class="st6" cx="859.46" cy="620.18" r="3.92"/>
	<path class="st5" d="M988.84,649.02c3.66,4.47,7.32,8.95,10.98,13.42c3.7,4.52,7.84,9.32,13.56,10.5c1.03,0.21,2.13,0.29,3.11-0.09
		c1.01-0.4,1.77-1.24,2.4-2.12c3.81-5.32,3.64-13.15-0.4-18.29c4.02,4.32,10.83,5.76,16.26,3.44c4.07-1.74,7.1-5.21,9.92-8.63
		c1-1.21,1.99-2.43,2.7-3.82c2.54-5,0.8-11.34-2.82-15.62c-3.62-4.28-8.79-6.91-13.9-9.21c-11.57-5.22-23.79-9.44-36.46-10.2"/>
	<circle class="st6" cx="879.23" cy="618.17" r="3.92"/>
	<circle class="st6" cx="869.66" cy="619.14" r="3.92"/>
	<path class="st3" d="M693.03,600.79c-3.93,4.07-6.6,9.36-7.54,14.94c-0.24,1.44-0.37,2.95,0.02,4.36c0.65,2.32,2.59,4.04,4.6,5.38
		c1.36,0.91,2.88,1.74,4.52,1.74c2.81-0.01,4.96-2.38,6.72-4.57c4.63-5.78,9.14-11.64,13.53-17.6c1.8-2.44,3.59-4.92,4.94-7.64
		c1.76-3.55,2.73-7.43,3.68-11.27c1.02-4.13,2.05-8.44,1.14-12.59c-0.53-2.41-2.62-5.09-4.96-4.28c-0.84,0.29-1.47,0.98-2.06,1.64
		C708.99,580.64,701.84,591.67,693.03,600.79z"/>
	<path class="st3" d="M983,604.74c-4,9.37-6.96,19.19-8.8,29.21c-0.48,2.6-0.83,5.22-0.95,7.86c-0.17,3.63,0.08,7.61,2.14,10.68
		c1.79,2.68,5.27,4.43,8.32,3.41c2.02-0.68,3.54-2.43,4.42-4.36c1.04-2.27,1.32-4.82,1.72-7.26c0.56-3.55,1.12-7.11,1.67-10.66
		c1.34-9.15,3.24-18.47,2.35-27.74c-0.24-2.53-0.96-5.45-3.81-6.03c-1.11-0.22-2.28,0.02-3.24,0.62
		C984.93,601.65,983.43,603.74,983,604.74z"/>
	<path class="st3" d="M800.89,763.69c-3.06,0.07-5.92,1.43-8.52,3.04c-2.6,1.61-4.6,3.64-4.71,6.69c-0.12,3.25,1.88,6.28,4.48,8.24
		s5.74,3.01,8.83,4.02c15.31,4.99,30.82,9.46,46.63,12.52c4.1,0.79,8.39,1.49,12.39,0.31c4-1.18,7.6-4.8,7.35-8.96
		c-0.23-3.97-3.29-6.7-6.67-8.79c-8.56-5.28-18.15-9.33-27.85-11.97c-5.19-1.41-10.87-2.17-16.21-3.12
		C810.86,764.64,805.12,763.6,800.89,763.69z"/>
	<path class="st3" d="M934.65,760.52c-6.95,1.64-13.57,2.92-20.52,4.56c-5.02,1.19-10.16,2.42-14.49,5.23
		c-4.33,2.81-7.77,7.55-7.59,12.71c0.05,1.32,0.33,2.65,0.97,3.81c1.2,2.17,3.53,3.52,5.93,4.11s4.92,0.48,7.39,0.37
		c7.06-0.33,14.13-0.79,21.15-1.66c13.87-1.71,27.5-4.98,40.94-8.83c3.7-1.06,7.55-2.26,10.26-4.99c2.69-2.71,3.85-6.53,4.92-10.2
		l0,0c0.16-1.77-0.13-3.09-0.81-4.72c-1.29-3.08-3.32-4.03-5.34-4.89c-4.31-1.86-8.95-0.67-13.49,0.1
		C953.96,757.79,943.59,758.41,934.65,760.52z"/>
	<path class="st8" d="M793.98,783.07c-4.49,5.9-7.69,12.79-9.29,20.03c-5.09-0.07-10.27,0.64-14.91,2.74s-8.72,5.69-10.78,10.35
		c-1.34,3.03-7.26,18.63,5.68,26.56c12.52,7.67,63.99,43.66,83.56-8.12c4-10.58,7.07-21.51,9.17-32.63
		c0.13-0.71,0.92-3.12,0.92-3.12s-4.12,0.91-7.67,0.25c-2.83-0.53-12.6-2.44-15.37-3.22c-5.45-1.54-10.89-3.08-16.34-4.61
		C810.2,788.83,801.45,786.36,793.98,783.07z"/>
	<path class="st8" d="M977.56,777.12c-0.2-0.61,3.21,0.71,3.41,1.32c3.31,10.06,3.52,18.73,6.14,28.99
		c1.63,6.4,3.03,13.6-0.34,19.28c-1.75,2.95-4.58,5.09-7.45,6.97c-20.59,13.47-45.82,17.31-70.17,20.83c-3,0.43-6.26,0.82-8.89-0.69
		c-2.83-1.63-4.11-5-4.87-8.17c-1.71-7.07-1.85-14.72,0.93-21.44c2.78-6.72,8.82-12.32,16.01-13.35c-2.85-6.21-4.9-11.86-4.63-19.12
		c0-0.06,0.06-0.04,0.12-0.05c3.74-0.67,7.27-0.76,10.53-1.14C938.44,788.19,958.86,785.61,977.56,777.12z"/>
	<path class="st9" d="M814.32,337.47c-3.28,9.26-9.38,17.5-18.42,23.53c-8.36,4.96-17.63,8.29-25.81,13.54
		c-12.36,7.93-21.69,19.92-28.56,32.9s-11.45,27.02-16.44,41.38c-3.65,2.6-7.67,4.64-11.67,6.67c-4.23,2.15-8.47,4.3-12.7,6.44
		c5.73,0.01,11.46-0.44,17.33-1.14c-0.57,2.39-1.61,4.67-3.05,6.65c19.82-1.54,38.96,6.42,58.32,10.99
		c4.41,1.04,8.98,1.91,13.46,1.26c4.75-0.69,9.07-3.04,13.27-5.35c10.2-5.6,20.4-11.19,30.01-17.81c8.02,2.24,16.09,4.29,24.2,6.17
		c10.09,2.33,20.5,4.39,30.74,2.88c7.61-1.12,14.78-4.15,21.86-7.16c6.03-2.56,12.07-5.13,17.95-7.89
		c4.89-4.38,8.03-10.34,11.06-16.17c-3.47,3.97-8.77,6.28-14.06,5.61c5.69-2.16,9.95-6.93,13.69-11.74
		c-1.64,0.04-3.15,0.82-4.66,1.44c-6.27,2.59-13.53,2.69-20.29-1.34c-4.63-10.35-9.27-20.69-13.9-31.04
		c-2.06-4.59-4.13-9.21-6.96-13.37c-7.89-11.59-20.63-18.35-34.2-23.63c-8.69-3.38-18.41-3.15-26.85,0.81
		c-0.81,0.38-1.62,0.78-2.43,1.2c3.12-5.33,5.61-11.02,7.4-16.93c0.16-0.52,0.22-1.24-0.27-1.45c-5.55,4.25-10.91,8.74-16.1,13.37
		c0.01-3.36,0.51-6.71,0.6-10.07s-0.27-6.83-1.84-9.8c-0.18-0.34-0.43-0.71-0.81-0.75S814.42,337.18,814.32,337.47z"/>
	<path class="st9" d="M901.36,407.77c5.22-6,7.04-14.21,7.82-22.12c1.23-12.55,0.25-25.38-3.47-37.43
		c-3.72-12.05-10.23-23.31-19.25-32.12c-6.01,5.22-9.8,13.41-13.37,21.43c-3.73,8.39-7.54,16.49-11.02,25.49
		c2.47,1.04,4.63,1.71,6.65,2.88c7.78,4.53,15.62,10.76,20.96,18.01C895.03,391.18,897.93,399.45,901.36,407.77z"/>
	<path class="st9" d="M730.81,432.44c-4-14.34-8.66-29.88-12.27-44.32c-3.52-14.05-6.89-28.67-4.22-43.1
		c0.56-4.62,1.56-9.17,2.78-13.66c1.2-4.43,2.97-9.26,7.47-11.26c2.72-1.2,5.88-0.31,8.62,0.86c6.23,2.66,11.87,6.68,16.41,11.71
		c6.94,7.69,11.32,17.66,19.29,24.27c4.46,3.71,10.09,6.41,12.51,11.67c-13.13,5.31-24.07,15.19-32.37,26.68
		C740.73,406.77,735.19,420.31,730.81,432.44z"/>
	<path class="st10" d="M721.58,399.34c2.92,10.79,5.93,21.55,9.05,32.28c1.38-2.65,2.46-5.31,3.55-7.97
		c0.59-1.45,1.19-2.91,1.81-4.35c2.32-5.38,5.03-10.58,7.93-15.66c3.91-6.84,8.21-13.51,13.5-19.34c-1.49-2.91-3.48-5.8-5.44-8.71
		c-1.59-2.37-3.15-4.76-4.32-7.36c-1.65-3.67-2.46-7.67-2.87-11.67c-0.95-5.4-0.87-10.99-3.57-15.54c-1.13-1.9-2.68-3.5-4.31-4.99
		c-4.66-4.27-10.18-8.52-16.29-10.75c-0.59-0.22-1.25,0.08-1.51,0.65c-0.47,1.07-0.99,2.14-1.34,3.11
		c-3.79,10.72-5.25,22.36-4.18,33.68c0.29,3.08,0.84,6.13,1.44,9.17C716.89,381.26,719.2,390.53,721.58,399.34z"/>
	<path class="st10" d="M725.25,467.43c2.74,0.14,5.16,0.47,7.59,0.89c2,0.35,3.99,0.71,5.99,1.06c2.3,0.51,4.53,1,6.75,1.56
		c1.38,0.35,2.75,0.73,4.12,1.1c2.21,0.61,4.42,1.21,6.64,1.82c4.55,1.35,9.19,2.4,14.09,3.89c2.85,0.72,5.58,1.31,8.32,1.81
		c0.76,0.14,1.53,0.27,2.3,0.33c2.94,0.24,4.93,0.04,6.11-0.23c2.65-0.61,5.14-1.43,7.57-2.54c6.37-3.24,12.5-6.76,18.56-10.39
		c3.64-1.99,7.2-4.1,10.72-6.27c2.03-1.25,4.05-2.52,5.92-4.01c2.18,0.67,4.39,1.26,6.6,1.84c7.3,2.12,14.69,3.91,22.15,5.41
		c5.57,1.39,11,1.91,16.88,2.36c7.64,0.43,14.37-0.72,20.86-3.44c6.81-2.9,12.29-5.13,19.06-8.01c3.01-1.28,6.02-2.56,9.18-3.41
		c-1.85,4.61-4,9.15-6.35,13.59c-6.09,11.53-13.73,22.87-21.63,33.25c-4.66,6.12-9.49,12.1-14.33,18.08
		c-7.76,0.71-12.84,2.58-18.91,4.61c-12.15,4.05-24.81,6.41-37.5,8.13c-9.17,1.25-18.33,2.55-27.06,0.39
		c-11.57-1.59-22.6-5.7-32.21-11.99c-8.4-5.58-15.57-12.74-22.27-20.14c-6.7-7.41-13.05-15.16-20.45-21.88
		c-2.2-0.68-4.37-0.36-6.5-0.09c-5.13,0.66-10.29,1.06-15.46,1.2c4.76-2.5,9.47-5.9,13.45-9.53
		C718.94,467.01,721.99,467.27,725.25,467.43z"/>
	<path class="st11" d="M830.1,466.53c-2.47-0.71-5.16-1.4-7.55-0.45c-0.37,0.15-0.73,0.34-0.97,0.66c-0.25,0.34-0.38,0.77-0.38,1.19
		c0,12.09,8.52,10.84,9.46,10.98c5.69,0.86,8.9-5.34,8.86-11.33c-0.01-1.35-0.22-2.88-1.31-3.67c-1.2-0.87-2.91-0.43-4.15,0.37
		C832.81,465.07,831.75,466.18,830.1,466.53z"/>
	<path class="st1" d="M809.64,489.43c2.68,3.1,6.74,4.83,10.83,5.1s8.19-0.84,11.4-2.77c3.44,1.63,7.48,1.97,11.14,0.94
		c3.67-1.03,6.94-3.41,9.03-6.59"/>
	<path class="st10" d="M901.79,407.26c0.73-1.1,1.23-1.64,1.96-2.75c1.44-2.41,2.56-4.94,3.32-7.5c4.68-15.76,2.44-29.97-0.53-45.95
		c-2.5-13.44-10.84-23.63-20.07-34.96c-1.54,1.83-4.01,4.29-5.61,6.93c-1.4,3.37-2.33,7.02-3.24,10.66
		c-1.27,5.12-2.48,10.25-3.64,15.39c-1.33,5.89-2.58,11.83-3.14,18.03c4.47,2.49,8.39,5.85,12.27,9.18
		c1.02,0.87,2.04,1.75,2.98,2.71c3.19,3.23,5.41,7.28,7.45,11.33C896.39,395.99,898.99,401.77,901.79,407.26z"/>
	<path class="st1" d="M883.63,349.98c2.84-2.28,5.69-4.56,8.5-6.88c0.31-0.26,0.97-0.66,0.97-0.66s-3.69,8.91-3.83,13.46
		c1.17-0.14,3.45-3.27,4.13-3.92c0.98-0.94,3.01-2.57,3.01-2.57s-0.68,2.05-0.94,2.69c-1.32,3.28-1.85,6.45-2.5,9.91
		c-0.06,0.33-0.88,6.41-0.46,6.31"/>
	<path class="st9" d="M940.28,657.67c6.6,1.14,26.62,13.25,27.34,13.96c17.86,17.86,24.44,43.42,24.44,44.59
		c0,48.55,13,73.16,34.24,88.64c2.39,1.74,10.38,5.71,12.44,6.8c0.49,0.26,1.32,0.65,1.86,0.79c0.45,0.11,0.82,0.52,2.43,0.79
		c-0.72-1.16-1.4-2.34-2.06-3.54c0.01-0.03,0.08-0.16,0.1-0.22c0.87-0.17,2.02,0.57,2.87,0.79c1.7,0.45,11.36,2.32,15.38,2.83
		c5.29,0.68,20.63,0.36,28.98,0.27c2.74-0.03,5.48-0.27,8.19-0.65c2.79-0.4,17.9-4.01,20.2-4.55c1.03-0.24,2.09-0.78,2.72-1.08
		c-2.01-1.12-4.02-2.13-5.83-3.55c-0.66-0.52-25.62-16.13-29.78-25.11c-1.73-3.72-4.3-8.53-6.39-14.2
		c-1.89-5.13-5.43-23.59-6.23-26.05c0,0-2.72-11.54-4-17.38c-0.74-3.38-1.4-6-1.82-7.85c-0.57-2.53-4.25-13.08-4.67-13.92
		c-0.88-1.77-5.45-23.25-35.95-40.25c-0.4-0.22-0.82-0.48-1.23-0.68c-0.75-0.37-1.36-0.44-2.34-0.96c0.3,1.86,0.43,3.73,0.43,6.14
		c0,0.55-0.03,2.75-1.36,5.25c-0.9,1.69-1.92,2.69-2.46,3.33c0,0.01-0.01,0.01-0.01,0.01c-0.99,1.03-2.43,1.47-3.84,1.26
		c-0.85-0.13-1.88-0.37-2.96-0.81c-0.62-0.25-1.84-0.83-1.84-0.83c-3.7-1.52-10.98-10.96-10.98-10.96
		c-5.22-6.69-8.35-10.43-9.02-11.02c-0.69,1.8-2.27,4.19-2.5,4.4c-3.31,3.08-6.07,2.33-7.14,1.85c-0.6-0.26-2.74-1.69-3.21-2.16
		c-1.16-1.16-1.55-2.47-2.38-4.49c-0.17-0.42-0.28-1.38-0.94-1.84c-0.88,0.27-3.15,0.71-3.53,0.73c-0.73,0.05-5.54-0.01-9.01-0.86
		c-1.67-0.41-3.39-0.78-7.93-2.48c-1.46-0.54-8.47-4.01-9.44-3.9C942.91,642.16,940.55,656.75,940.28,657.67z"/>
</g>
<g id="Layer_3">
</g>
<g id="Layer_5">
</g>
<g id="Layer_4">
	<path class="st1" d="M740.94,393.69c-2.32,0.13-4.33-1.53-5.97-3.17c-5.97-5.98-10.7-13.2-13.81-21.06
		c2.22,0.34,4.44,0.68,6.66,1.02c-2.01-1.25-2.98-3.62-3.83-5.83c-2.18-5.69-4.39-11.54-4.44-17.63c2.65,5.6,7.13,10.31,12.58,13.25
		"/>
	<ellipse class="st11" cx="867.79" cy="429.58" rx="15.75" ry="25.75"/>
	<ellipse class="st12" cx="862.07" cy="427.31" rx="7.75" ry="10.75"/>
	<ellipse class="st11" cx="787.9" cy="433.22" rx="15.75" ry="25.75"/>
	<ellipse class="st12" cx="793.36" cy="431.62" rx="7.75" ry="10.75"/>
	<path class="st10" d="M1078.74,767.62c-2.91-0.13-7.4-1.72-7.4-1.72s-16.69-9.85-17.41-9.96c0.42,2.42,5.89,20.08,5.89,20.08
		l-3.26-0.22c0,0-20.1-1.08-20.53-0.97c0.55,1.69,3.84,11.48,3.49,12.24c-3.4,0.18-17.49-0.94-17.49-0.94s-0.77,5.92-2.18,11.79
		c4.91,9.08,24.67,16.38,24.67,16.38s-4.7-4.86-4.49-5.76c0.39,0.04,3.66,1.24,3.66,1.24l10.4,2.51l17.57,1.17l22.92-0.65
		l25.78-5.58l-7.25-3.95l-10.63-7.5l-7.85-6.24l-6.16-5.34l-2.53-2.46l-2.16-3.29l-1.33-2.77l-2.13-4.45
		C1080.33,771.21,1079.2,768.59,1078.74,767.62z"/>
</g>
</svg>
