<?xml version="1.0" encoding="utf-8"?>
<!-- Generator: Adobe Adobe Illustrator 24.2.0, SVG Export Plug-In . SVG Version: 6.00 Build 0)  -->
<svg version="1.1" xmlns="http://www.w3.org/2000/svg" xmlns:xlink="http://www.w3.org/1999/xlink" x="0px" y="0px" width="1000px"
	 height="901px" viewBox="0 0 1000 901" style="enable-background:new 0 0 1000 901;" xml:space="preserve">
<style type="text/css">
	.st0{fill:#F9F5E3;stroke:#000000;stroke-width:2;stroke-miterlimit:10;}
	.st1{fill:#F9F5E3;stroke:#000000;stroke-width:5;stroke-miterlimit:10;}
	.st2{fill:#FF7400;stroke:#000000;stroke-width:4;stroke-miterlimit:10;}
	.st3{fill:#FF7400;stroke:#000000;stroke-width:3;stroke-miterlimit:10;}
	.st4{stroke:#000000;stroke-width:3;stroke-miterlimit:10;}
	.st5{fill:#F9F5E3;stroke:#000000;stroke-width:3;stroke-miterlimit:10;}
	.st6{display:none;fill:none;stroke:#000000;stroke-width:3;stroke-miterlimit:10;}
</style>
<g id="Layer_6">
	<ellipse class="st0" cx="455.67" cy="459.8" rx="158.5" ry="154"/>
</g>
<g id="Layer_3">
	<path class="st1" d="M457,560.27c4.98-1.69,9.9-3.92,13.74-7.53c5.13-4.83,7.9-11.82,8.57-18.86c0.68-7.03-0.6-14.13-2.6-20.9
		c-3.97-13.42-11.64-26.72-24.28-32.59c-16.21-7.53-35.71-0.92-52.88-5.88c-13.5-3.9-24.16-14.67-31.27-26.85
		c6.49,0.43,13.68-1.95,19.1-6.01s9.48-9.65,13.75-14.92c7.34-9.06,15.52-17.42,24.4-24.95c11.17-9.48,24.78-17.99,41.48-16.4
		c-1.55-4.6-0.78-9.63,0.21-14.38c1.05-5.05,2.34-10.08,4.41-14.8c4.9-11.17,14.3-20.25,25.03-24.68
		c6.94,10.68,12.14,22.5,15.34,34.84c2.65,10.24,3.82,21.56-0.36,30.75c11.61,5.14,17.54,18.02,21.65,30.09
		c5.69,16.72,9.85,34.24,9.21,51.9c-0.24,6.58-1.16,13.19-3.35,19.4c-1.83,5.16-4.51,9.96-7.17,14.73
		c-2.57,4.6-5.15,9.22-8.26,13.48c-4.4,6.04-9.79,11.28-15.42,16.17c-7.37,6.39-15.32,12.3-24.35,15.95
		c-9.03,3.64-19.29,4.87-28.54,1.84c8.23-2.3,15.6-7.6,20.32-14.76c0.07,0,0.13,0,0.4,0"/>
	<path class="st2" d="M429.47,477.44c0.14,11.09-2.56,21.99-5.24,32.75c-1.13,4.53-2.29,9.15-4.76,13.11
		c-1.67,2.69-3.88,4.99-6.07,7.26c-8.32,8.64-16.64,17.29-24.96,25.93c20.03,3.23,40.45,4.04,60.68,2.41
		c4.02-0.32,8.1-0.76,11.86-2.24c9.58-3.78,15.52-14.01,16.6-24.25c1.08-10.24-1.94-20.49-5.92-29.99c-1.22-2.9-2.54-5.78-4.24-8.43
		c-7.93-12.3-23.53-18.04-38.15-17.4C429.6,480.21,429.39,483.88,429.47,477.44z"/>
	<path class="st2" d="M444.21,388.04c-0.95-7.81-0.89-15.76,0.43-23.51c0.43-2.49,0.98-4.96,1.76-7.35
		c0.91-2.79,2.11-5.47,3.39-8.09c3.01-6.17,6.56-12.21,11.65-16.67c0.18-0.16,0.41-0.33,0.48-0.09c1.05-0.34,2.23,0.14,3.03,0.92
		s1.3,1.8,1.8,2.79c1.55,3.07,3.28,6.06,5.17,8.93c0.84,1.28,1.74,2.56,2.99,3.44"/>
	<g id="Layer_5">
		<path class="st3" d="M445.58,386.97c-2.84-15.24,0.65-31.5,9.16-44.42c1.41-2.15,2.96-4.21,4.63-6.16
			c0.73-0.85,1.48-1.69,2.39-2.35c0.33-0.24,0.77-0.46,1.12-0.26c0.16,0.09,0.27,0.25,0.37,0.4c3.19,4.85,6.39,9.69,9.58,14.54
			c0.21,0.32,0.43,0.66,0.46,1.04c0.03,0.38-0.14,0.74-0.31,1.08c-0.9,1.82-2.02,3.52-2.89,5.36c-1.62,3.39-2.39,7.13-3.15,10.82
			c-0.98,4.79-1.97,9.67-1.54,14.55c0.09,0.99,0.14,2.2-0.68,2.75c-0.36,0.24-0.81,0.29-1.24,0.34c-6.05,0.62-12.09,1.42-18.1,2.4
			c-0.11-1.26-0.22-2.51-0.33-3.77"/>
		<path class="st3" d="M370.72,447.98c15.42,13.49,37.27,16.36,57.71,16.4c20.43,0.04,41.32-2.11,60.95,3.59
			c7.56,2.2,15.08,5.75,19.95,11.97c3.05,3.9,4.89,8.63,6.09,13.45c4.28,17.24,0.27,36.36-10.55,50.4
			c6.1-0.05,10.47-5.73,13.85-10.85c8.62-13.03,17.42-26.48,20.53-41.82c2.42-11.94,1.23-24.31-0.52-36.37
			c-1.6-11.02-3.68-22.06-7.91-32.35c-4.23-10.29-10.75-19.86-19.86-26.19c4.97-22.29-1.15-46.79-16-64.06
			c-10.22,3.47-17.81,12.49-22.13,22.43c-4.32,9.94-5.8,20.85-7.24,31.6c-7.05-2.46-14.79,0.47-21.38,4
			c-12.11,6.48-23.07,15.12-32.22,25.39c-6.26,7.02-11.71,14.83-18.74,21.07C386.21,442.88,377.06,447.52,370.72,447.98z"/>
		<polygon class="st4" points="368.46,447.85 375.94,458.47 381.18,445.72 		"/>
		<path class="st5" d="M492.8,343.34c-5.58,4.09-13.42,15.58-15.23,22.32c-1.12,4.17-2.31,14.53-2.65,17.62
			c-0.05,0.49,0.29,0.94,0.78,1.02l25.14,3.75c0.4,0.06,0.8-0.15,0.97-0.51c3.79-7.76,2.51-10.96,0.27-17.38
			C499.87,363.73,493.07,344.92,492.8,343.34z"/>
	</g>
	<path class="st6" d="M413.14,431.06c18.07-16.93,27,1.76,27.42,1.91"/>
	<path class="st5" d="M427.33,423.15l-9.03,7.62c-1.14,0.96-0.27,2.81,1.19,2.55l20.09-3.54c1.47-0.26,1.65-2.29,0.25-2.8
		l-11.06-4.07C428.28,422.72,427.73,422.81,427.33,423.15z"/>
</g>
<g id="Layer_7">
</g>
</svg>
