<?xml version="1.0" encoding="utf-8"?>
<!-- Generator: Adobe Adobe Illustrator 24.2.0, SVG Export Plug-In . SVG Version: 6.00 Build 0)  -->
<svg version="1.1" xmlns="http://www.w3.org/2000/svg" xmlns:xlink="http://www.w3.org/1999/xlink" x="0px" y="0px" width="1000px"
	 height="901px" viewBox="0 0 1000 901" style="enable-background:new 0 0 1000 901;" xml:space="preserve">
<style type="text/css">
	.st0{fill:url(#SVGID_1_);stroke:#F9F5E3;stroke-width:2;stroke-miterlimit:10;}
	.st1{fill:#F9F5E3;stroke:#000000;stroke-width:3;stroke-miterlimit:10;}
	.st2{fill:#F9F5E3;stroke:#000000;stroke-width:5;stroke-miterlimit:10;}
	.st3{fill:#FF7400;stroke:#000000;stroke-width:4;stroke-miterlimit:10;}
	.st4{fill:#FF7400;stroke:#000000;stroke-width:3;stroke-miterlimit:10;}
	.st5{stroke:#000000;stroke-width:3;stroke-miterlimit:10;}
	.st6{fill:none;}
	.st7{display:none;fill:#FFFFFF;}
	.st8{font-family:'Chorine-Large';}
	.st9{font-size:25.25px;}
	.st10{fill:none;stroke:#FFFFFF;stroke-miterlimit:10;stroke-dasharray:0,0,0,0,0,0;}
	.st11{fill:#FFFFFF;}
	.st12{display:none;fill:#F9F5E3;stroke:#000000;stroke-width:3;stroke-miterlimit:10;}
	.st13{fill:none;stroke:#000000;stroke-width:3;stroke-miterlimit:10;}
</style>
<g id="Layer_6">
	<radialGradient id="SVGID_1_" cx="455.418" cy="464.0108" r="156.2662" gradientUnits="userSpaceOnUse">
		<stop  offset="0" style="stop-color:#142043"/>
		<stop  offset="1" style="stop-color:#371442"/>
	</radialGradient>
	<ellipse class="st0" cx="455.42" cy="464.01" rx="158.5" ry="154"/>
</g>
<g id="Layer_3">
	<path class="st1" d="M501.46,366.49c0.59,1.18-0.7,9.21-0.16,9.98c0.5,0.71,0.89,1.46,1.27,2.23c0.5,1,1.08,1.96,1.59,2.96
		c0.49,0.95,1.12,1.8,1.6,2.76c0.54,1.08,1.11,2.24,1.49,3.4c0.16,0.45,0.26,0.92,0.31,1.4c-0.16,0.37-0.46,0.5-0.9,0.4
		c-0.58,0.01-1.17,0.01-1.75,0.02c-0.59,0.03-1.19,0.09-1.78,0.18c-1,0.11-1.92,0.15-2.91-0.08c-0.82-0.27-1.65-0.49-2.5-0.66
		c-0.77-0.11-1.53-0.19-2.31-0.25c-1.36-0.17-2.65-0.61-4.01-0.79c-1.36-0.18-2.74-0.36-4.11-0.5c-2.22-0.23-4.35-0.74-6.6-0.75
		c-1.42-0.01-2.8-0.1-4.21-0.25c-0.69-0.08-1.24-0.17-1.86-0.48c-0.49-0.25-1.05-0.4-1.13-0.91c-0.17-1.17-0.16-2.33,0.03-3.48
		c0.04-0.64,0.13-1.27,0.27-1.9c0.19-0.96,0.24-1.93,0.38-2.9c0.42-2.95,5.75-16.22,8.63-20.24"/>
	<path class="st2" d="M458.72,561.27c4.98-1.69,9.9-3.92,13.74-7.53c5.13-4.83,7.9-11.82,8.57-18.86c0.68-7.03-0.6-14.13-2.6-20.9
		c-3.97-13.42-11.64-26.72-24.28-32.59c-16.21-7.53-35.71-0.92-52.88-5.88c-13.5-3.9-24.16-14.67-31.27-26.85
		c6.49,0.43,13.68-1.95,19.1-6.01s9.48-9.65,13.75-14.92c7.34-9.06,15.52-17.42,24.4-24.95c11.17-9.48,24.78-17.99,41.48-16.4
		c-1.55-4.6-0.78-9.63,0.21-14.38c1.05-5.05,2.34-10.08,4.41-14.8c4.9-11.17,14.3-20.25,25.03-24.68
		c6.94,10.68,12.14,22.5,15.34,34.84c2.65,10.24,3.82,21.56-0.36,30.75c11.61,5.14,17.54,18.02,21.65,30.09
		c5.69,16.72,9.85,34.24,9.21,51.9c-0.24,6.58-1.16,13.19-3.35,19.4c-1.83,5.16-4.51,9.96-7.17,14.73
		c-2.57,4.6-5.15,9.22-8.26,13.48c-11.18,15.35-41.43,42.76-68.31,33.96c8.23-2.3,15.6-7.6,20.32-14.76c0.07,0,0.13,0,0.4,0"/>
	<path class="st3" d="M431.19,478.44c0.14,11.09-2.56,21.99-5.24,32.75c-1.13,4.53-2.29,9.15-4.76,13.11
		c-1.67,2.69-3.88,4.99-6.07,7.26c-8.32,8.64-16.64,17.29-24.96,25.93c20.03,3.23,40.45,4.04,60.68,2.41
		c4.02-0.32,8.1-0.76,11.86-2.24c9.58-3.78,15.52-14.01,16.6-24.25c1.08-10.24-1.94-20.49-5.92-29.99c-1.22-2.9-2.54-5.78-4.24-8.43
		c-7.93-12.3-23.53-18.04-38.15-17.4C431.32,481.21,431.11,484.88,431.19,478.44z"/>
	<path class="st3" d="M445.93,389.04c-0.95-7.81-0.89-15.76,0.43-23.51c0.43-2.49,0.98-4.96,1.76-7.35
		c0.91-2.79,2.11-5.47,3.39-8.09c3.01-6.17,6.56-12.21,11.65-16.67c0.18-0.16,0.41-0.33,0.48-0.09c1.05-0.34,2.23,0.14,3.03,0.92
		s1.3,1.8,1.8,2.79c1.55,3.07,3.28,6.06,5.17,8.93c0.84,1.28,1.74,2.56,2.99,3.44"/>
	<g id="Layer_5">
		<path class="st4" d="M447.3,387.97c-2.84-15.24,0.65-31.5,9.16-44.42c1.41-2.15,2.96-4.21,4.63-6.16
			c0.73-0.85,1.48-1.69,2.39-2.35c0.33-0.24,0.77-0.46,1.12-0.26c0.16,0.09,0.27,0.25,0.37,0.4c3.19,4.85,6.39,9.69,9.58,14.54
			c0.21,0.32,0.43,0.66,0.46,1.04c0.03,0.38-0.14,0.74-0.31,1.08c-0.9,1.82-2.02,3.52-2.89,5.36c-1.62,3.39-2.39,7.13-3.15,10.82
			c-0.98,4.79-1.97,9.67-1.54,14.55c0.09,0.99,0.14,2.2-0.68,2.75c-0.36,0.24-0.81,0.29-1.24,0.34c-6.05,0.62-12.09,1.42-18.1,2.4
			c-0.11-1.26-0.22-2.51-0.33-3.77"/>
		<path class="st4" d="M372.44,448.98c15.42,13.49,37.27,16.36,57.71,16.4c20.43,0.04,41.32-2.11,60.95,3.59
			c7.56,2.2,15.08,5.75,19.95,11.97c3.05,3.9,4.89,8.63,6.09,13.45c4.28,17.24,0.27,36.36-10.55,50.4
			c6.1-0.05,10.47-5.73,13.85-10.85c8.62-13.03,17.42-26.48,20.53-41.82c2.42-11.94,1.23-24.31-0.52-36.37
			c-1.6-11.02-3.68-22.06-7.91-32.35c-4.23-10.29-10.75-19.86-19.86-26.19c4.97-22.29-1.15-46.79-16-64.06
			c-10.22,3.47-17.81,12.49-22.13,22.43c-4.32,9.94-5.8,20.85-7.24,31.6c-7.05-2.46-14.79,0.47-21.38,4
			c-12.11,6.48-23.07,15.12-32.22,25.39c-6.26,7.02-11.71,14.83-18.74,21.07C387.93,443.88,378.78,448.52,372.44,448.98z"/>
		<polygon class="st5" points="370.18,448.85 377.66,459.47 382.9,446.72 		"/>
	</g>
	<rect x="404.71" y="572.97" class="st6" width="112.5" height="21.87"/>
	<text transform="matrix(1 0 0 1 404.71 590.6414)" class="st7 st8 st9">Hack Trent</text>
	<path class="st10" d="M453.08,343.72c3.31-5.01,7.64-10.97,10.26-12.39c0.35-0.19,0.75-0.22,1.12-0.11
		c5.25,1.57,12.03,15.67,12.17,15.34c3.87-8.73,22.37-16.83,22.7-16.97c3.3,1.58,17.02,32.73,18.81,48.3
		c0.14,1.19,0.72,11.55-1.54,18.69c-0.03,0.09-0.03,0.17-0.04,0.25c-0.01,0.04-0.01,0.09-0.02,0.13c-0.01,0.03,6.95,5.12,8.44,6.88
		c10.6,12.4,17.56,44.01,19.93,56.23c12.04,61.96-49.85,97.21-51.79,98.41c-1.47,0.91-20.31,12.03-36.46,5.73
		c-4.19-1.63-3.68-1.75-5.55-1.75c-4.22,0-45.76,0.22-65.24-3.35c-0.18-0.03,24.79-25.09,28.47-28.76
		c8.22-8.22,9.84-18.45,10.73-22.64c0.47-2.24,0.57-3.62,1.3-7.07c1.08-5.11,2.9-19.46,2.57-20.85c-0.06-0.24-0.11-0.39-0.13-0.38
		c-0.21,0.13-13.19,0.42-14.59,0.31c-4.93-0.36-9.85-1.08-14.97-2.66c-0.81-0.25-11-3.69-16.71-9.4
		c-0.41-0.41-7.56-7.22-11.79-13.47c-1.44-2.13-2.86-4.5-6.4-8.92c1.34,0.56,8.38,0.86,9.15,0.69c1.58-0.35,9.17-2.29,13.24-5.33
		c3.15-2.35,6.59-5.37,9.89-9.16c2.01-2.31,4.71-5.55,7.7-9.46c0.73-0.96,10.66-14.3,19.71-20.59c1.87-1.3,18.44-11.82,19.76-12.94
		c-0.23-1.9-2.62-18.48,2.52-30.93C448.28,352.81,450.25,348,453.08,343.72z"/>
	<path class="st11" d="M364.55,382.11c-0.65-0.01-0.65,1.01,0,1C365.2,383.12,365.2,382.1,364.55,382.11z"/>
	<path class="st11" d="M410.26,347.83c-0.65-0.01-0.65,1.01,0,1C410.91,348.84,410.91,347.82,410.26,347.83z"/>
	<path class="st11" d="M555.31,390.9c-0.65-0.01-0.65,1.01,0,1C555.95,391.91,555.95,390.89,555.31,390.9z"/>
	<path class="st11" d="M581.24,404.09c-0.65-0.01-0.65,1.01,0,1C581.89,405.1,581.89,404.08,581.24,404.09z"/>
	<path class="st11" d="M554.03,446.87c-0.65-0.01-0.65,1.01,0,1C554.68,447.88,554.68,446.87,554.03,446.87z"/>
	<path class="st11" d="M600.71,470.34c-0.65-0.01-0.65,1.01,0,1C601.36,471.35,601.36,470.33,600.71,470.34z"/>
	<path class="st11" d="M348.14,520.33c-0.65-0.01-0.65,1.01,0,1C348.79,521.34,348.79,520.32,348.14,520.33z"/>
	<path class="st11" d="M383.06,510.62c-0.65-0.01-0.65,1.01,0,1C383.71,511.63,383.71,510.61,383.06,510.62z"/>
	<path class="st11" d="M395.49,493.94c-0.65-0.01-0.65,1.01,0,1C396.13,494.95,396.13,493.93,395.49,493.94z"/>
	<path class="st11" d="M553.55,532.43c-0.65-0.01-0.65,1.01,0,1C554.2,533.44,554.19,532.42,553.55,532.43z"/>
	<path class="st11" d="M325.43,425.62c-0.65-0.01-0.65,1.01,0,1C326.08,426.64,326.08,425.62,325.43,425.62z"/>
	<path class="st11" d="M414.52,385.4c-0.65-0.01-0.65,1.01,0,1C415.17,386.41,415.17,385.4,414.52,385.4z"/>
	<path class="st11" d="M398.59,371.01c-0.65-0.01-0.65,1.01,0,1C399.24,372.02,399.23,371,398.59,371.01z"/>
	<path class="st11" d="M345.65,377.21c-1.96,0.01-1.96,2.99,0,3C347.61,380.2,347.6,377.22,345.65,377.21z"/>
	<path class="st11" d="M586.7,502.62c-1.96,0.01-1.96,2.99,0,3C588.66,505.61,588.66,502.63,586.7,502.62z"/>
	<path class="st11" d="M565.01,422.57c-1.96,0.01-1.96,2.99,0,3C566.97,425.56,566.96,422.58,565.01,422.57z"/>
	<path class="st11" d="M344.18,543.28c-1.96,0.01-1.96,2.99,0,3C346.14,546.28,346.14,543.3,344.18,543.28z"/>
	<path class="st11" d="M359.01,477.55c-1.96,0.01-1.96,2.99,0,3C360.97,480.54,360.97,477.56,359.01,477.55z"/>
	<path class="st11" d="M314.81,437.34c-1.96,0.01-1.96,2.99,0,3C316.77,440.34,316.76,437.36,314.81,437.34z"/>
	<path class="st11" d="M411.44,358.7c-1.96,0.01-1.96,2.99,0,3C413.4,361.7,413.39,358.72,411.44,358.7z"/>
	<path class="st11" d="M573.35,468.84c-3.28,0.05-3.28,4.94,0,5C576.64,473.78,576.63,468.9,573.35,468.84z"/>
	<path class="st11" d="M434.57,327.89c-3.28,0.05-3.28,4.94,0,5C437.85,332.84,437.84,327.96,434.57,327.89z"/>
	<path class="st11" d="M322.49,494.94c-3.28,0.05-3.28,4.94,0,5C325.77,499.88,325.76,495,322.49,494.94z"/>
	<path class="st11" d="M541.99,561.24c-3.28,0.05-3.28,4.94,0,5C545.27,566.19,545.26,561.3,541.99,561.24z"/>
	<path class="st11" d="M369.33,408.09c-0.79-3.23-4.45-2.61-6.62-1.17c-0.91,0.55-1.54,1.43-2.06,2.33c-0.96,1.74-2.1,3.4-2.83,5.25
		c-1.28-2.05-2.98-4.06-5.53-4.16c-3.11,0.3-3.96,3.68-3.1,6.27c0.88,2.36,3.6,3.05,5.51,4.36c1.89,1.26,4.06,2.12,5.81,3.59
		c0.54,0.44,1.14,1.05,1.85,1.11c0.05-0.02,0.07-0.03,0.11-0.07c-0.58,0.03-1.05-0.89-1.39-1.31c-0.04-0.06-0.09-0.11-0.13-0.17
		c2.27-3.14,4.85-6.37,6.67-9.97C368.66,412.34,369.71,410.25,369.33,408.09z M366.69,409.62c-0.4,2.08-1,2.64-1.81,4.86
		c-1.18,2.97-2.76,6.15-3.98,9.59c-1.34-1.89-3.3-3.21-5.02-4.73c-0.93-0.8-2.53-1.87-3.28-2.34c-0.09-0.07-0.18-0.15-0.26-0.23
		c-0.24-0.21-0.47-0.43-0.67-0.68c-0.42-0.63-0.56-2.09-0.32-2.93c0.04-0.08,0.1-0.19,0.14-0.24c0.02-0.03,0.03-0.05,0.04-0.05
		c0.12-0.12,0.44-0.44,0.54-0.54c0.05-0.04,0.17-0.1,0.24-0.14c1.89-0.53,4.43,1.69,6.15,3.35c-0.19-0.34-0.4-0.69-0.62-1.04
		c1.15-1.49,2.58-2.72,3.8-4.15c0.69-0.74,1.09-1.26,1.89-1.65C366.61,407.62,367.04,407.96,366.69,409.62z"/>
	<path class="st11" d="M389.67,572.93c-0.65-0.01-0.65,1.01,0,1C390.32,573.94,390.32,572.92,389.67,572.93z"/>
	<path class="st11" d="M517.21,594.5c-0.65-0.01-0.65,1.01,0,1C517.86,595.51,517.86,594.49,517.21,594.5z"/>
	<path class="st11" d="M384.53,579.4c-1.96,0.01-1.96,2.99,0,3C386.49,582.4,386.48,579.42,384.53,579.4z"/>
	<path class="st11" d="M523.2,577.9c-1.96,0.01-1.96,2.99,0,3C525.16,580.9,525.16,577.92,523.2,577.9z"/>
	<path class="st11" d="M463.42,595.16c-3.28,0.05-3.28,4.94,0,5C466.7,600.11,466.7,595.23,463.42,595.16z"/>
	<path class="st11" d="M432.05,594.73c-4.68,2.26-9.27-0.35-11.58-4.31c-0.63-1.14,0.07-3.79,1.42-5.03
		c1.06-1.1,2.88-1.45,4.99-1.96c1.33-0.37,3.19-1.06,3.54-0.88c1.22,0.07,0.99,1.91,0.85,3.5c-0.17,1.59-1,3.38-2.89,4.23
		c-0.63,0.31-1.55,0.69-2.43,0.38c-0.27-0.09-0.6-0.37-0.59-0.71c0.17-1.3,0.8-2.56,1.41-3.73c-0.6,0.74-1.04,1.59-1.48,2.42
		c-0.24,0.5-0.54,1.05-0.45,1.63c0.95,2.47,4.78,0.9,6.09-0.51c1.27-1.32,1.73-3.17,1.81-4.96c0.12-1.14,0.03-2.48-1-3.2
		c-0.96-0.71-2.23-0.5-3.28-0.12c-1.35,0.45-2.73,0.76-4.11,1.13c-3.49,0.65-6.09,4.21-5.4,7.73c1.02,2.75,3.56,4.76,6.18,5.93
		c3.07,1.11,6.45,0.05,8.93-1.9c1.25-0.86,2.34-2.59,2.95-3.67C435.75,592.44,433.95,594.05,432.05,594.73z"/>
	<path class="st11" d="M543.53,372.46c-0.36-0.64-0.81-1.21-1.36-1.67c-0.18-0.18-0.37-0.35-0.55-0.53
		c-0.02-0.02-0.05-0.06-0.08-0.1c-0.29-0.67-0.6-1.34-0.92-2.02c0.05-0.17,0.09-0.33,0.15-0.49c0.21-0.85,0.79-1.66,0.69-2.55
		c-0.11-0.56-0.72-0.89-1.25-0.7c-0.36,0.1-0.79,0.07-1.4,0.12c-0.23-0.44-0.46-0.88-0.69-1.31c-0.37-0.58-0.55-1.48-0.98-2.18
		c-0.05-0.15-0.11-0.23-0.18-0.25c-0.1-0.12-0.2-0.24-0.33-0.34c-0.33-0.17-0.78,0.06-0.87,0.42c-0.12,0.16,0.16,0.71,0.22,0.8
		c0.06,0.26,0.06,0.93,0.07,1.5c0.09,0.71,0.16,1.33,0.23,1.98c-0.24,0.06-0.48,0.14-0.72,0.19c-0.78,0.16-0.76,0.19-1.45,0.19
		c-0.5-0.13-1.07,0.31-0.83,0.83c0.28,0.54,1.03,0.58,1.53,0.83c0.22,0.06,1.1,0.76,1.79,1.18c0.01,0.05,0.01,0.1,0.01,0.15
		c0.2,1.34,0.67,2.62,0.9,3.95c0.26,0.88,0.21,2.22,0.94,2.83c1.39,0.55,1.06-1.42,1.22-2.22c0.09-0.72,0.19-1.51,0.33-2.34
		c0.54,0.38,1.09,0.74,1.65,1.1c0.21,0.26,0.71,1.23,1.35,1.56c0.07,0.03,0.16,0.07,0.14,0.06c0.01,0.01,0.02,0.01,0.03,0.02
		c0.01,0.01,0.01,0.01,0.02,0.01c0.25,0.18,0.63,0.04,0.7-0.26C543.96,372.82,543.61,372.65,543.53,372.46z"/>
	<path class="st11" d="M487.06,577.64c-0.65-0.01-0.65,1.01,0,1C487.71,578.65,487.71,577.63,487.06,577.64z"/>
	<path class="st11" d="M577.14,521.98c1.14,0.52,2.27,1,3.36,1.38c-1.02-0.68-2.07-1.31-3.16-1.88c0.6-1.48,1.15-2.98,1.67-4.49
		c-0.86,1.34-1.59,2.76-2.22,4.22c-1.54-0.76-3.15-1.39-4.82-1.8c1.48,0.77,3.04,1.58,4.6,2.31c-0.66,1.61-1.19,3.27-1.62,4.95
		C575.76,525.14,576.48,523.57,577.14,521.98z"/>
	<path class="st11" d="M334.05,470.31c0.95-0.84,1.85-1.71,2.67-2.64c-1,0.72-1.98,1.48-2.88,2.28c-0.46-0.78-0.95-1.54-1.48-2.28
		c0.33,0.87,0.72,1.75,1.13,2.61c-0.73,0.69-1.41,1.41-1.99,2.19c0.73-0.6,1.46-1.2,2.17-1.82c0.74,1.49,1.56,2.96,2.39,4.36
		C335.6,473.38,334.9,471.82,334.05,470.31z"/>
	<path class="st11" d="M387.15,361.55c-0.03,0-0.05-0.02-0.07-0.04c-0.59-2.53-1.88-4.73-3.47-6.72c1.06-1.51,2.12-3.01,3.15-4.54
		c-1.32,1.2-2.54,2.54-3.6,3.99c-1.19-1.42-2.53-2.73-3.88-3.99c1.08,1.63,2.26,3.13,3.42,4.63c-1.08,1.58-1.98,3.29-2.59,5.1
		c0.97-1.54,2-3.03,3.03-4.52c1.44,1.89,2.82,3.8,3.86,6.02C387.04,361.51,387.11,361.56,387.15,361.55z"/>
	<path class="st1" d="M494.64,345.77c-5.58,4.09-13.42,15.58-15.23,22.32c-1.12,4.17-2.31,14.53-2.65,17.62
		c-0.05,0.49,0.29,0.94,0.78,1.02l25.14,3.75c0.4,0.06,0.8-0.15,0.97-0.51c3.79-7.76,2.51-10.96,0.27-17.38
		C501.71,366.16,494.91,347.35,494.64,345.77z"/>
	<path class="st12" d="M429.04,424.15l-9.03,7.62c-1.14,0.96-0.27,2.81,1.19,2.55l20.09-3.54c1.47-0.26,1.65-2.29,0.25-2.8
		l-11.06-4.07C430,423.72,429.44,423.81,429.04,424.15z"/>
	<path class="st13" d="M417.02,432.15c18.07-16.93,27,1.76,27.42,1.91"/>
</g>
<g id="Layer_7">
	<path class="st11" d="M587.91,442.28c1.26,2.16,2.49,4.34,3.78,6.39c-0.82-2.44-1.89-4.82-3.27-7c0.91-1.09,1.85-2.15,2.89-3.09
		c-1.21,0.64-2.28,1.54-3.22,2.57c-0.92-1.38-1.98-2.66-3.2-3.81c0.94,1.42,1.82,2.9,2.69,4.38c-1.17,1.39-2.13,2.97-2.92,4.47
		C585.79,444.94,586.83,443.6,587.91,442.28z"/>
</g>
</svg>
